<svg width="174" height="42" viewBox="0 0 174 42" fill="none" xmlns="http://www.w3.org/2000/svg">
<rect width="174" height="42" fill="white"/>
<path fill-rule="evenodd" clip-rule="evenodd" d="M90.8375 10.5464C91.1443 10.5464 91.5535 10.6487 91.7581 10.8533C92.065 11.0579 92.2696 11.2624 92.3719 11.5693C92.4742 11.8762 92.5765 12.1831 92.4742 12.5923C92.3719 12.8992 92.2696 13.206 91.9627 13.5129C91.7581 13.7175 91.4512 13.9221 91.042 14.0244C90.7352 14.1267 90.326 14.0244 90.0191 13.9221C89.7122 13.8198 89.4053 13.6152 89.303 13.3083C89.0985 13.0015 88.9962 12.6946 88.9962 12.3877C88.9962 11.9785 89.2007 11.467 89.5076 11.1602C89.9168 10.751 90.326 10.5464 90.8375 10.5464Z" fill="#0078D7"/>
<path d="M168.274 18.6279C168.172 18.7302 167.967 18.9348 167.967 19.1394C167.865 19.344 167.865 19.5486 167.865 19.7531C167.865 19.9577 167.865 20.1623 167.967 20.3669C168.07 20.5715 168.172 20.7761 168.274 20.8784C168.581 21.1853 168.99 21.2876 169.502 21.2876C169.604 21.2876 169.809 21.2876 169.911 21.1853C170.013 21.083 170.115 20.9807 170.218 20.8784C170.422 20.5715 170.525 20.1623 170.525 19.7531C170.525 19.344 170.422 19.0371 170.218 18.7302C170.115 18.6279 170.013 18.5256 169.911 18.4233C169.809 18.321 169.604 18.321 169.502 18.321C169.093 18.2187 168.683 18.321 168.274 18.6279ZM143.008 23.7426C142.087 23.7426 141.678 23.3334 141.678 22.6174C141.678 22.1059 142.496 19.5486 143.008 19.1394C143.519 19.5486 144.337 22.1059 144.337 22.6174C144.337 23.3334 143.928 23.7426 143.008 23.7426ZM148.02 23.538C147.611 22.4128 147.099 21.1853 146.895 20.6738C146.486 19.4463 145.463 16.6843 145.463 16.582C145.053 15.4568 143.928 15.4568 143.008 15.4568C141.575 15.4568 140.962 15.5591 140.348 16.9912C140.246 17.2981 139.427 19.5486 138.711 21.6967C138.507 22.3105 138.302 22.9243 138.097 23.538H137.791C136.461 23.538 136.256 24.9702 136.256 25.3793C136.256 25.7885 136.461 27.1183 137.791 27.1183H140.45C140.552 27.1183 140.655 27.1183 140.859 27.1183H145.463C145.565 27.1183 145.769 27.1183 145.872 27.1183H148.429C149.759 27.1183 149.964 25.7885 149.964 25.3793C149.964 24.9702 149.759 23.538 148.429 23.538H148.02ZM162.239 25.3793V17.0935C162.239 15.5591 160.704 15.3545 160.193 15.3545C159.988 15.3545 159.681 15.3545 159.477 15.4568C158.147 15.7637 157.636 16.8889 156.92 18.1164C156.613 18.5256 155.487 20.5715 155.078 20.6738C154.976 20.4692 154.874 20.1623 154.874 19.8554V16.8889C154.874 16.6843 154.874 16.4797 154.771 16.2751C154.669 16.0706 154.567 15.866 154.362 15.7637C154.158 15.6614 153.953 15.4568 153.748 15.4568C153.544 15.3545 153.339 15.3545 153.032 15.3545C152.623 15.3545 151.293 15.6614 151.293 16.9912V25.4816C151.293 26.9137 152.623 27.1183 153.237 27.1183C153.442 27.1183 153.748 27.1183 153.953 27.016C155.181 26.8115 155.59 25.9931 156.408 24.6633C156.408 24.6633 158.045 21.6967 158.454 21.6967C158.659 21.6967 158.556 22.2082 158.556 22.3105V25.3793C158.556 25.8908 158.761 26.3 159.068 26.7092C159.375 27.016 159.886 27.2206 160.398 27.2206C160.909 27.2206 161.318 27.016 161.727 26.7092C162.137 26.4023 162.239 25.8908 162.239 25.3793ZM134.926 25.6862V16.6843C134.926 15.7637 133.903 15.3545 133.085 15.3545C132.574 15.3545 131.244 15.5591 131.244 16.9912V18.6279C131.244 19.344 130.118 19.4463 129.607 19.4463C129.095 19.4463 127.97 19.344 127.97 18.6279V16.8889C127.97 15.4568 126.64 15.3545 126.129 15.3545C125.311 15.3545 124.288 15.7637 124.288 16.6843V25.7885C124.288 26.8114 125.208 27.1183 126.129 27.1183C127.05 27.1183 127.97 26.6069 127.97 25.5839V23.4357C127.97 22.7197 129.095 22.6174 129.607 22.6174C130.118 22.6174 131.244 22.6174 131.244 23.4357V25.5839C131.244 27.016 132.574 27.2206 133.085 27.2206C133.596 27.2206 134.006 27.1183 134.415 26.8114L134.517 26.7092L134.619 26.6069C134.619 26.5046 134.722 26.5046 134.722 26.4023C134.926 26.0954 134.926 25.8908 134.926 25.6862ZM96.4636 25.3793V17.0935C96.4636 15.5591 94.9292 15.3545 94.4177 15.3545C94.2131 15.3545 93.9063 15.3545 93.7017 15.4568C92.3718 15.7637 91.8604 16.8889 91.1443 18.1164C90.8374 18.5256 89.7122 20.5715 89.303 20.6738C89.2007 20.4692 89.0984 20.1623 89.0984 19.8554V16.8889C89.0984 16.6843 89.0984 16.4797 88.9961 16.2751C88.8938 16.0706 88.7915 15.866 88.587 15.7637C88.3824 15.6614 88.1778 15.4568 87.9732 15.4568C87.7686 15.3545 87.564 15.3545 87.2571 15.3545C86.848 15.3545 85.5181 15.6614 85.5181 16.9912V25.4816C85.5181 26.9137 86.848 27.1183 87.4617 27.1183C87.6663 27.1183 87.9732 27.1183 88.1778 27.016C89.4053 26.8115 89.8145 25.9931 90.6328 24.6633C90.6328 24.6633 92.2696 21.6967 92.6787 21.6967C92.8833 21.6967 92.8833 22.2082 92.8833 22.3105V25.3793C92.8833 25.8908 93.0879 26.3 93.3948 26.7092C93.7017 27.016 94.2131 27.2206 94.7246 27.2206C95.2361 27.2206 95.6453 27.016 96.0544 26.7092C96.259 26.4023 96.4636 25.8908 96.4636 25.3793ZM79.1759 21.2876C79.1759 22.7197 78.3575 24.1518 76.7208 24.1518C74.9818 24.1518 74.2658 22.5151 74.2658 21.2876C74.2658 19.5486 75.2887 18.4233 76.7208 18.4233C78.4598 18.321 79.1759 19.9577 79.1759 21.2876ZM83.0631 21.2876C83.0631 17.7073 80.5057 15.0476 76.7208 15.0476C73.2428 15.0476 70.4809 17.5027 70.4809 21.2876C70.4809 24.8679 73.1405 27.4252 76.7208 27.4252C80.1988 27.4252 83.0631 24.9702 83.0631 21.2876ZM65.673 19.344C65.673 20.2646 65.1616 20.8784 64.0363 20.8784C63.4226 20.8784 62.9111 20.2646 62.9111 19.344C62.9111 18.5256 63.4226 17.8096 64.0363 17.8096C64.2409 17.8096 64.4455 17.8096 64.6501 17.9118C64.8547 18.0141 65.0593 18.1164 65.1616 18.2187C65.3662 18.321 65.4685 18.5256 65.4685 18.7302C65.673 18.9348 65.673 19.1394 65.673 19.344ZM68.5373 19.4463C68.5373 16.4797 66.3891 15.3545 62.8088 15.3545C61.6836 15.3545 59.2285 15.3545 59.2285 17.0935V25.5839C59.2285 26.7092 60.2514 27.016 61.0698 27.016C62.2973 27.016 62.9111 26.3 62.9111 24.8679C62.9111 24.0495 63.0134 23.2311 64.0363 23.2311C66.696 23.538 68.5373 21.5944 68.5373 19.4463ZM57.1826 16.9912C57.1826 16.7866 57.1826 16.582 57.0803 16.3774C56.978 16.1728 56.8757 15.9683 56.6711 15.866C56.4666 15.6614 56.3643 15.5591 56.1597 15.5591C55.9551 15.4568 55.7505 15.4568 55.5459 15.4568H50.3289C50.1243 15.4568 49.9197 15.4568 49.7151 15.5591C49.5105 15.6614 49.306 15.7637 49.2037 15.866C48.9991 15.9683 48.8968 16.1728 48.7945 16.3774C48.6922 16.582 48.6922 16.7866 48.6922 16.9912C48.6922 19.5486 51.1473 17.605 51.1473 19.9577V25.5839C51.1473 25.7885 51.1473 25.9931 51.2495 26.1977C51.3518 26.4023 51.4541 26.6069 51.6587 26.7092C51.8633 26.8114 52.0679 27.016 52.2725 27.016C52.4771 27.1183 52.6817 27.1183 52.8863 27.1183C53.2954 27.1183 54.7276 26.9137 54.7276 25.4816V19.8554C54.7276 17.5027 57.1826 19.5486 57.1826 16.9912ZM47.0555 25.1747C47.0555 24.9702 47.0555 24.7656 46.9532 24.6633C46.8509 24.4587 46.7486 24.3564 46.6463 24.1518C46.544 24.0495 46.3394 23.9472 46.2371 23.8449C46.0325 23.7426 45.9302 23.7426 45.7257 23.7426C45.1119 23.7426 44.7027 24.0495 44.0889 24.0495C42.5545 24.0495 41.6339 22.822 41.6339 21.3899C41.6339 19.8554 42.3499 18.5256 43.9867 18.5256C44.6004 18.5256 45.1119 18.9348 45.828 18.9348C46.7486 18.9348 47.0555 18.1164 47.0555 17.4004C47.0555 15.5591 45.2142 15.0476 43.7821 15.0476C39.9972 15.0476 37.849 18.1164 37.849 21.2876C37.849 24.4587 39.7926 27.4252 43.8844 27.4252C44.4981 27.4252 45.2142 27.3229 45.828 27.1183C46.2371 27.016 46.6463 26.7092 46.8509 26.4023C46.9532 25.9931 47.1578 25.5839 47.0555 25.1747ZM116.922 22.822C116.002 22.822 115.695 22.4128 115.695 21.6967C115.695 21.1853 116.513 18.8325 116.922 18.4233C117.332 18.7302 118.15 21.1853 118.15 21.6967C118.15 22.4128 117.741 22.7197 116.922 22.822ZM122.651 25.8908C122.651 25.0724 121.219 21.6967 120.912 20.6738C120.503 19.4463 119.48 16.6843 119.48 16.582C119.071 15.4568 117.945 15.4568 116.922 15.4568C115.49 15.4568 114.877 15.5591 114.263 16.9912C114.161 17.2981 113.342 19.5486 112.626 21.6967C111.91 23.7426 111.296 25.7885 111.296 25.8908C111.296 27.016 112.217 27.1183 113.035 27.1183C115.9 27.1183 113.854 25.1747 117.025 25.1747C119.378 25.1747 118.764 26.4023 119.787 26.9137C120.196 27.016 120.605 27.1183 121.014 27.1183C121.321 27.1183 121.628 27.1183 121.935 27.016C122.139 26.9137 122.344 26.8115 122.446 26.6069C122.549 26.3 122.651 26.0954 122.651 25.8908ZM109.455 25.8908C109.455 25.0724 108.023 21.6967 107.716 20.6738C107.307 19.4463 106.284 16.6843 106.284 16.582C105.875 15.4568 104.749 15.4568 103.829 15.4568C102.397 15.4568 101.783 15.5591 101.169 16.9912C101.067 17.2981 100.249 19.5486 99.5325 21.6967C98.8164 23.7426 98.1003 25.7885 98.1003 25.8908C98.1003 27.016 99.021 27.1183 99.8393 27.1183C101.681 27.1183 101.885 25.9931 101.988 25.6862L103.42 20.6738C103.522 20.4692 103.522 20.2646 103.624 20.06C103.624 19.9577 103.727 19.8554 103.829 19.8554C104.136 20.2646 104.238 20.6738 104.34 21.083L106.079 26.1977C106.182 26.4023 106.386 26.6069 106.693 26.8114C107.102 26.9137 107.511 27.016 107.921 27.016C108.227 27.016 108.534 27.016 108.841 26.9137C109.046 26.8114 109.25 26.7092 109.353 26.5046C109.353 26.3 109.455 26.0954 109.455 25.8908ZM173.9 25.4816C173.9 25.7885 173.9 26.0954 173.696 26.3C173.594 26.6069 173.287 26.8114 173.082 26.9137C172.775 27.016 172.468 27.1183 172.059 27.016C171.855 27.016 171.65 27.016 171.445 27.016C170.116 26.8115 170.218 25.6862 170.116 24.3564C170.116 24.2541 170.116 24.2541 170.116 24.1518C169.297 24.1518 168.888 27.016 166.433 27.016C165.819 27.016 164.796 26.8115 164.796 25.9931C164.796 24.6633 166.74 23.538 166.74 22.9243C166.74 22.1059 164.694 21.9013 164.694 19.2417C164.694 15.6614 167.967 15.2522 170.627 15.2522C171.957 15.2522 173.9 15.3545 173.9 17.1958V25.4816Z" fill="#0078D7"/>
<path d="M33.2457 11.5698L20.7658 4.20459C20.4589 4.10229 20.152 4 19.8451 4C19.5382 4 19.2314 4.10229 18.9245 4.30688L16.2648 5.8413L30.586 14.1271V29.9827L33.348 28.4483C33.5526 28.346 33.7572 28.1415 33.9617 27.9369C34.1663 27.7323 34.2686 27.5277 34.2686 27.2208V12.8996C34.2686 12.5927 34.1663 12.2858 34.064 12.0812C33.7572 11.8767 33.5526 11.6721 33.2457 11.5698Z" fill="#FFDD21"/>
<path d="M23.2208 33.2562H6.23995L2.76195 37.5526C2.45506 37.8594 2.14818 38.064 1.739 38.064C1.32983 38.064 0.920649 37.9617 0.613766 37.7572C0.409177 37.6549 0.306883 37.4503 0.204589 37.2457C0.102294 37.0411 0 36.8365 0 36.5296V16.0708C0 15.7639 0.102294 15.5593 0.204589 15.3547C0.306883 15.1501 0.511471 14.9455 0.71606 14.8432L8.79731 10.24L12.4799 12.3882L3.68259 17.4006V30.8011L4.09177 30.2897C4.19407 30.0851 4.39865 29.9828 4.60324 29.7782C4.80783 29.6759 5.01242 29.5736 5.3193 29.5736H23.2208V33.2562Z" fill="#61A535"/>
<path d="M27.824 14.6389L15.0372 7.27368C14.7303 7.17139 14.4234 7.06909 14.1166 7.06909C13.8097 7.06909 13.5028 7.17139 13.2982 7.37597L10.7408 9.01268L25.062 17.2985V32.745L27.824 31.4151C28.3355 31.1083 28.6423 30.9037 28.6423 30.1876V16.1733C28.6423 15.8664 28.6423 15.5595 28.4378 15.3549C28.3355 15.048 28.1309 14.8435 27.824 14.6389Z" fill="#0078D7"/>
</svg>